<svg xmlns="http://www.w3.org/2000/svg" xmlns:xlink="http://www.w3.org/1999/xlink" id="Layer_1" x="0" y="0" version="1.1" viewBox="0 0 70 81" xml:space="preserve" style="enable-background:new 0 0 70 81"><style type="text/css">.st0{fill:#019648}.st1{fill:#007b3f}.st2{fill:#215732}.st3{fill:#62bb7f}.st4{fill:#fff}</style><g><path d="M35,4.5c-0.7,0-1.5,0.2-2.2,0.6L5.4,20.9c-1.3,0.8-2.2,2.2-2.2,3.7v31.7c0,0.8,0.2,1.5,0.6,2.2l31.2-18 C35,40.5,35,17.2,35,4.5z" class="st0"/><path d="M3.8,58.5c0.4,0.6,0.9,1.2,1.6,1.6l27.4,15.8c1.3,0.8,3,0.8,4.3,0l27.4-15.8c0.7-0.4,1.2-0.9,1.6-1.6L35,40.5 C35,40.5,14.8,52.2,3.8,58.5z" class="st1"/><path d="M66.2,58.5c0.4-0.6,0.6-1.4,0.6-2.2l0-31.7c0-1.5-0.8-3-2.2-3.7L37.2,5.1c-0.7-0.4-1.4-0.6-2.2-0.6l0,36 C35,40.5,55.2,52.2,66.2,58.5z" class="st2"/><path d="M44.1,34.5l-8.4-4.9c-0.2-0.1-0.4-0.2-0.7-0.2c-0.2,0-0.5,0.1-0.7,0.2l-8.4,4.9c-0.4,0.2-0.7,0.7-0.7,1.2v4.9 v4.9c0,0.5,0.3,0.9,0.7,1.2l8.4,4.9c0.2,0.1,0.4,0.2,0.7,0.2h0c0.2,0,0.5-0.1,0.7-0.2l8.4-4.9c0.4-0.2,0.7-0.7,0.7-1.2v-4.9v-4.9 C44.8,35.2,44.5,34.7,44.1,34.5z" class="st3"/><path d="M44.1,34.5l-8.4-4.9c-0.2-0.1-0.4-0.2-0.7-0.2c-0.2,0-0.5,0.1-0.7,0.2l-8.4,4.9c-0.2,0.1-0.4,0.3-0.5,0.5 c-0.1,0.2-0.2,0.4-0.2,0.7v4.9v4.9c0,0.5,0.3,0.9,0.7,1.2l8.4,4.9c0.2,0.1,0.4,0.2,0.7,0.2h0c0.2,0,0.5-0.1,0.7-0.2l8.4-4.9 c0.4-0.2,0.7-0.7,0.7-1.2v-4.9v-4.9C44.8,35.2,44.5,34.7,44.1,34.5z" class="st4"/></g></svg>